<svg width="30" height="30" viewBox="0 0 30 30" fill="none" xmlns="http://www.w3.org/2000/svg">
<g clip-path="url(#clip0_13_381)">
<path d="M15.0001 0.000244141C6.72915 0.000244141 0.000183105 6.72921 0.000183105 15.0002C0.000183105 23.2712 6.72915 30.0001 15.0001 30.0001C23.2711 30.0001 30.0001 23.2712 30.0001 15.0002C30.0001 6.72915 23.2711 0.000244141 15.0001 0.000244141ZM15.0001 28.1251C7.76303 28.1251 1.87518 22.2373 1.87518 15.0002C1.87518 7.76309 7.76303 1.87524 15.0001 1.87524C22.2372 1.87524 28.1251 7.76304 28.1251 15.0002C28.1251 22.2373 22.2372 28.1251 15.0001 28.1251ZM23.3204 15.0002C23.3204 15.518 22.9007 15.9377 22.3829 15.9377H15.9376V22.383C15.9376 22.9008 15.5179 23.3205 15.0001 23.3205C14.4824 23.3205 14.0626 22.9008 14.0626 22.383V15.9377H7.61731C7.09958 15.9377 6.67981 15.518 6.67981 15.0002C6.67981 14.4824 7.09958 14.0627 7.61731 14.0627H14.0626V7.61737C14.0626 7.09958 14.4824 6.67987 15.0001 6.67987C15.5179 6.67987 15.9376 7.09958 15.9376 7.61737V14.0627H22.3829C22.9007 14.0627 23.3204 14.4824 23.3204 15.0002Z" fill="#64432C"/>
</g>
<defs>
<clipPath id="clip0_13_381">
<rect width="30" height="30" fill="white"/>
</clipPath>
</defs>
</svg>
