<svg width="420" height="72" viewBox="0 0 420 72" fill="none" xmlns="http://www.w3.org/2000/svg">
<path d="M73.504 28.692L75.52 31.1C74.232 32.668 72.384 33.508 70.228 33.508C67.316 33.508 65.272 32.444 62.248 29.252C56.872 28.58 53.092 24.52 53.092 19.2C53.092 13.376 57.628 9.064 63.816 9.064C69.976 9.064 74.54 13.348 74.54 19.2C74.54 23.792 71.712 27.432 67.54 28.776C68.492 29.784 69.332 30.148 70.312 30.148C71.516 30.148 72.58 29.672 73.504 28.692ZM57.684 19.2C57.684 22.924 60.316 25.472 63.816 25.472C67.316 25.472 69.948 22.924 69.948 19.2C69.948 15.476 67.316 12.928 63.816 12.928C60.316 12.928 57.684 15.476 57.684 19.2ZM86.657 29.336C81.085 29.336 77.781 26.144 77.781 20.376V9.4H82.317V20.208C82.317 23.932 83.941 25.472 86.685 25.472C89.457 25.472 91.053 23.932 91.053 20.208V9.4H95.533V20.376C95.533 26.144 92.229 29.336 86.657 29.336ZM116.766 9.4L109.15 22.056V29H104.614V22L97.026 9.4H101.842L107.078 18.108L112.314 9.4H116.766ZM130.654 29V13.096H124.382V9.4H141.462V13.096H135.19V29H130.654ZM161.262 29H156.39L152.61 23.54H152.386H148.438V29H143.902V9.4H152.386C157.622 9.4 160.898 12.116 160.898 16.512C160.898 19.452 159.414 21.608 156.866 22.7L161.262 29ZM156.306 16.512C156.306 14.356 154.906 13.096 152.134 13.096H148.438V19.928H152.134C154.906 19.928 156.306 18.64 156.306 16.512ZM165.892 7.804L160.824 3.772H165.528L169.308 7.804H165.892ZM164.492 29V9.4H169.028V29H164.492ZM187.175 9.4H191.655V29H187.931L178.159 17.1V29H173.679V9.4H177.431L187.175 21.3V9.4ZM209.733 9.4H214.269V29H209.733V20.964H200.829V29H196.293V9.4H200.829V17.128H209.733V9.4ZM226.836 29V9.4H231.372V25.304H241.2V29H226.836ZM254.846 7.804H251.43L246.362 3.772H251.066L254.846 7.804ZM258.542 29L256.806 24.8H247.706L245.97 29H241.322L250.058 9.4H254.538L263.302 29H258.542ZM249.162 21.356H255.378L252.27 13.852L249.162 21.356ZM287.428 29H283.172L283.144 17.24L277.376 26.928H275.332L269.592 17.492V29H265.336V9.4H269.088L276.424 21.58L283.648 9.4H287.372L287.428 29ZM314.344 9.4H318.852L310.368 29H305.888L297.432 9.4H302.332L308.296 23.4L314.344 9.4ZM320.488 29V9.4H325.024V29H320.488ZM337.096 5.676L334.66 7.804H331.468L335.164 3.772H339.028L342.724 7.804H339.532L337.096 5.676ZM334.184 25.36H344.852V29H329.676V9.4H344.488V13.04H334.184V17.296H343.284V20.824H334.184V25.36ZM337.236 31.044C338.328 31.044 339.168 31.856 339.168 33.004C339.168 34.152 338.328 34.88 337.236 34.88C336.144 34.88 335.304 34.152 335.304 33.004C335.304 31.856 336.144 31.044 337.236 31.044ZM357.786 29.336C351.71 29.336 347.174 25.108 347.174 19.2C347.174 13.292 351.71 9.064 357.814 9.064C361.202 9.064 364.03 10.296 365.878 12.536L362.966 15.224C361.65 13.712 359.998 12.928 358.038 12.928C354.37 12.928 351.766 15.504 351.766 19.2C351.766 22.896 354.37 25.472 358.038 25.472C359.998 25.472 361.65 24.688 362.966 23.148L365.878 25.836C364.03 28.104 361.202 29.336 357.786 29.336Z" fill="white"/>
<rect x="101.5" y="50" width="44" height="4" fill="white"/>
<rect x="157.5" y="50" width="44" height="4" fill="white"/>
<rect x="213.5" y="50" width="44" height="4" fill="white"/>
<rect x="273.5" y="50" width="44" height="4" fill="white"/>
<path fill-rule="evenodd" clip-rule="evenodd" d="M6.00027e-06 19H33.3333V21H2L2 70H418V21H386.667V19H420V20V21V70V72H2.18557e-06L0 70L2.18557e-06 20H6.00027e-06V19Z" fill="white"/>
</svg>
