<svg width="580" height="46" viewBox="0 0 580 46" fill="none" xmlns="http://www.w3.org/2000/svg">
<rect width="257" height="46" fill="#64432C"/>
<path d="M27.524 29.216C26.24 29.216 25.076 28.94 24.032 28.388C23 27.824 22.184 27.05 21.584 26.066C20.996 25.07 20.702 23.948 20.702 22.7C20.702 21.452 20.996 20.336 21.584 19.352C22.184 18.356 23 17.582 24.032 17.03C25.076 16.466 26.246 16.184 27.542 16.184C28.634 16.184 29.618 16.376 30.494 16.76C31.382 17.144 32.126 17.696 32.726 18.416L30.854 20.144C30.002 19.16 28.946 18.668 27.686 18.668C26.906 18.668 26.21 18.842 25.598 19.19C24.986 19.526 24.506 20 24.158 20.612C23.822 21.224 23.654 21.92 23.654 22.7C23.654 23.48 23.822 24.176 24.158 24.788C24.506 25.4 24.986 25.88 25.598 26.228C26.21 26.564 26.906 26.732 27.686 26.732C28.946 26.732 30.002 26.234 30.854 25.238L32.726 26.966C32.126 27.698 31.382 28.256 30.494 28.64C29.606 29.024 28.616 29.216 27.524 29.216ZM42.7471 26.3H36.8971L35.7811 29H32.7931L38.4091 16.4H41.2891L46.9231 29H43.8631L42.7471 26.3ZM41.8291 24.086L39.8311 19.262L37.8331 24.086H41.8291ZM41.4151 15.374L39.8491 14.006L38.2831 15.374H36.2311L38.6071 12.782H41.0911L43.4671 15.374H41.4151ZM53.5647 29.216C51.7647 29.216 50.3607 28.718 49.3527 27.722C48.3567 26.726 47.8587 25.304 47.8587 23.456V16.4H50.7747V23.348C50.7747 25.604 51.7107 26.732 53.5827 26.732C54.4947 26.732 55.1907 26.462 55.6707 25.922C56.1507 25.37 56.3907 24.512 56.3907 23.348V16.4H59.2707V23.456C59.2707 25.304 58.7667 26.726 57.7587 27.722C56.7627 28.718 55.3647 29.216 53.5647 29.216ZM78.8059 16.4V29H75.8899V23.834H70.1659V29H67.2499V16.4H70.1659V21.368H75.8899V16.4H78.8059ZM87.889 29.216C86.581 29.216 85.399 28.934 84.343 28.37C83.299 27.806 82.477 27.032 81.877 26.048C81.289 25.052 80.995 23.936 80.995 22.7C80.995 21.464 81.289 20.354 81.877 19.37C82.477 18.374 83.299 17.594 84.343 17.03C85.399 16.466 86.581 16.184 87.889 16.184C89.197 16.184 90.373 16.466 91.417 17.03C92.461 17.594 93.283 18.374 93.883 19.37C94.483 20.354 94.783 21.464 94.783 22.7C94.783 23.936 94.483 25.052 93.883 26.048C93.283 27.032 92.461 27.806 91.417 28.37C90.373 28.934 89.197 29.216 87.889 29.216ZM87.889 26.732C88.633 26.732 89.305 26.564 89.905 26.228C90.505 25.88 90.973 25.4 91.309 24.788C91.657 24.176 91.831 23.48 91.831 22.7C91.831 21.92 91.657 21.224 91.309 20.612C90.973 20 90.505 19.526 89.905 19.19C89.305 18.842 88.633 18.668 87.889 18.668C87.145 18.668 86.473 18.842 85.873 19.19C85.273 19.526 84.799 20 84.451 20.612C84.115 21.224 83.947 21.92 83.947 22.7C83.947 23.48 84.115 24.176 84.451 24.788C84.799 25.4 85.273 25.88 85.873 26.228C86.473 26.564 87.145 26.732 87.889 26.732ZM87.547 14.618C87.883 14.462 88.117 14.294 88.249 14.114C88.393 13.934 88.465 13.736 88.465 13.52C88.465 13.292 88.387 13.112 88.231 12.98C88.075 12.836 87.871 12.764 87.619 12.764C87.259 12.764 86.905 12.878 86.557 13.106L85.981 11.972C86.497 11.564 87.145 11.36 87.925 11.36C88.561 11.36 89.077 11.54 89.473 11.9C89.881 12.248 90.085 12.71 90.085 13.286C90.085 14.294 89.533 15.05 88.429 15.554L87.547 14.618ZM96.9745 16.4H99.8905V29H96.9745V16.4ZM110.588 18.776H106.556V16.4H117.536V18.776H113.504V29H110.588V18.776ZM130.661 16.4V29H127.745V23.834H122.021V29H119.105V16.4H122.021V21.368H127.745V16.4H130.661ZM139.24 29.216C137.44 29.216 136.036 28.718 135.028 27.722C134.032 26.726 133.534 25.304 133.534 23.456V16.4H136.45V23.348C136.45 25.604 137.386 26.732 139.258 26.732C140.17 26.732 140.866 26.462 141.346 25.922C141.826 25.37 142.066 24.512 142.066 23.348V16.4H144.946V23.456C144.946 25.304 144.442 26.726 143.434 27.722C142.438 28.718 141.04 29.216 139.24 29.216ZM143.452 16.4H143.938C144.262 16.4 144.52 16.298 144.712 16.094C144.916 15.878 145.018 15.602 145.018 15.266C145.018 14.846 144.898 14.486 144.658 14.186L146.314 13.574C146.698 14.078 146.89 14.678 146.89 15.374C146.89 16.274 146.62 16.982 146.08 17.498C145.552 18.014 144.814 18.272 143.866 18.272H143.452V16.4ZM158.929 17.948C159.589 18.512 160.105 19.208 160.477 20.036C160.861 20.852 161.053 21.74 161.053 22.7C161.053 23.936 160.753 25.052 160.153 26.048C159.553 27.032 158.731 27.806 157.687 28.37C156.643 28.934 155.467 29.216 154.159 29.216C152.851 29.216 151.669 28.934 150.613 28.37C149.569 27.806 148.747 27.032 148.147 26.048C147.559 25.052 147.265 23.936 147.265 22.7C147.265 21.464 147.565 20.354 148.165 19.37C148.765 18.374 149.599 17.594 150.667 17.03C151.735 16.466 152.941 16.184 154.285 16.184C154.813 16.184 155.473 16.232 156.265 16.328C156.889 16.4 157.327 16.436 157.579 16.436C158.047 16.436 158.407 16.334 158.659 16.13C158.923 15.926 159.055 15.632 159.055 15.248C159.055 14.876 158.935 14.516 158.695 14.168L160.351 13.556C160.735 14.096 160.927 14.696 160.927 15.356C160.927 16.016 160.753 16.568 160.405 17.012C160.057 17.456 159.565 17.768 158.929 17.948ZM154.159 26.732C154.903 26.732 155.575 26.564 156.175 26.228C156.775 25.88 157.243 25.4 157.579 24.788C157.927 24.176 158.101 23.48 158.101 22.7C158.101 21.92 157.927 21.224 157.579 20.612C157.243 20 156.775 19.526 156.175 19.19C155.575 18.842 154.903 18.668 154.159 18.668C153.415 18.668 152.743 18.842 152.143 19.19C151.543 19.526 151.069 20 150.721 20.612C150.385 21.224 150.217 21.92 150.217 22.7C150.217 23.48 150.385 24.176 150.721 24.788C151.069 25.4 151.543 25.88 152.143 26.228C152.743 26.564 153.415 26.732 154.159 26.732ZM150.343 12.782H153.367L155.797 15.374H153.601L150.343 12.782ZM174.8 16.4V29H172.406L166.124 21.35V29H163.244V16.4H165.656L171.92 24.05V16.4H174.8ZM186.295 22.502H188.959V27.614C188.275 28.13 187.483 28.526 186.583 28.802C185.683 29.078 184.777 29.216 183.865 29.216C182.557 29.216 181.381 28.94 180.337 28.388C179.293 27.824 178.471 27.05 177.871 26.066C177.283 25.07 176.989 23.948 176.989 22.7C176.989 21.452 177.283 20.336 177.871 19.352C178.471 18.356 179.299 17.582 180.355 17.03C181.411 16.466 182.599 16.184 183.919 16.184C185.023 16.184 186.025 16.37 186.925 16.742C187.825 17.114 188.581 17.654 189.193 18.362L187.321 20.09C186.421 19.142 185.335 18.668 184.063 18.668C183.259 18.668 182.545 18.836 181.921 19.172C181.297 19.508 180.811 19.982 180.463 20.594C180.115 21.206 179.941 21.908 179.941 22.7C179.941 23.48 180.115 24.176 180.463 24.788C180.811 25.4 181.291 25.88 181.903 26.228C182.527 26.564 183.235 26.732 184.027 26.732C184.867 26.732 185.623 26.552 186.295 26.192V22.502ZM205.279 22.502H207.943V27.614C207.259 28.13 206.467 28.526 205.567 28.802C204.667 29.078 203.761 29.216 202.849 29.216C201.541 29.216 200.365 28.94 199.321 28.388C198.277 27.824 197.455 27.05 196.855 26.066C196.267 25.07 195.973 23.948 195.973 22.7C195.973 21.452 196.267 20.336 196.855 19.352C197.455 18.356 198.283 17.582 199.339 17.03C200.395 16.466 201.583 16.184 202.903 16.184C204.007 16.184 205.009 16.37 205.909 16.742C206.809 17.114 207.565 17.654 208.177 18.362L206.305 20.09C205.405 19.142 204.319 18.668 203.047 18.668C202.243 18.668 201.529 18.836 200.905 19.172C200.281 19.508 199.795 19.982 199.447 20.594C199.099 21.206 198.925 21.908 198.925 22.7C198.925 23.48 199.099 24.176 199.447 24.788C199.795 25.4 200.275 25.88 200.887 26.228C201.511 26.564 202.219 26.732 203.011 26.732C203.851 26.732 204.607 26.552 205.279 26.192V22.502ZM218.95 26.3H213.1L211.984 29H208.996L214.612 16.4H217.492L223.126 29H220.066L218.95 26.3ZM218.032 24.086L216.034 19.262L214.036 24.086H218.032ZM216.052 32.78C215.692 32.78 215.392 32.666 215.152 32.438C214.924 32.222 214.81 31.934 214.81 31.574C214.81 31.214 214.924 30.914 215.152 30.674C215.392 30.434 215.692 30.314 216.052 30.314C216.4 30.314 216.694 30.434 216.934 30.674C217.174 30.914 217.294 31.214 217.294 31.574C217.294 31.934 217.174 32.222 216.934 32.438C216.706 32.666 216.412 32.78 216.052 32.78ZM216.052 15.518C215.104 15.518 214.324 15.272 213.712 14.78C213.1 14.288 212.776 13.622 212.74 12.782H214.504C214.516 13.166 214.666 13.478 214.954 13.718C215.254 13.946 215.62 14.06 216.052 14.06C216.484 14.06 216.844 13.946 217.132 13.718C217.432 13.478 217.588 13.166 217.6 12.782H219.364C219.328 13.622 219.004 14.288 218.392 14.78C217.78 15.272 217 15.518 216.052 15.518ZM229.887 16.4C231.003 16.4 231.969 16.586 232.785 16.958C233.613 17.33 234.249 17.858 234.693 18.542C235.137 19.226 235.359 20.036 235.359 20.972C235.359 21.896 235.137 22.706 234.693 23.402C234.249 24.086 233.613 24.614 232.785 24.986C231.969 25.346 231.003 25.526 229.887 25.526H227.349V29H224.433V16.4H229.887ZM229.725 23.15C230.601 23.15 231.267 22.964 231.723 22.592C232.179 22.208 232.407 21.668 232.407 20.972C232.407 20.264 232.179 19.724 231.723 19.352C231.267 18.968 230.601 18.776 229.725 18.776H227.349V23.15H229.725Z" fill="white"/>
<path d="M257 18V0L275 18H257Z" fill="#2E1300"/>
<line y1="45.5" x2="580" y2="45.5" stroke="#252525"/>
</svg>
