<svg width="580" height="46" viewBox="0 0 580 46" fill="none" xmlns="http://www.w3.org/2000/svg">
<rect width="240" height="46" fill="#64432C"/>
<path d="M27.542 24.536V29H24.626V24.5L19.748 16.4H22.844L26.21 21.998L29.576 16.4H32.438L27.542 24.536ZM26.876 12.782H29.9L26.642 15.374H24.446L26.876 12.782ZM43.3457 24.05L41.6537 25.814V29H38.7557V16.4H41.6537V22.286L47.2337 16.4H50.4737L45.2537 22.016L50.7797 29H47.3777L43.3457 24.05ZM52.0799 16.4H54.9959V29H52.0799V16.4ZM67.7422 26.66V29H57.9862V16.4H67.5082V18.74H60.8842V21.476H66.7342V23.744H60.8842V26.66H67.7422ZM64.3042 15.374L62.7562 14.348L61.2082 15.374H59.1382L61.5322 13.322H63.9802L66.3742 15.374H64.3042ZM66.9142 11.468H69.7762L66.9502 13.646H64.9162L66.9142 11.468ZM81.6184 16.4V29H79.2244L72.9424 21.35V29H70.0624V16.4H72.4744L78.7384 24.05V16.4H81.6184ZM94.2871 24.05L92.5951 25.814V29H89.6971V16.4H92.5951V22.286L98.1751 16.4H101.415L96.1951 22.016L101.721 29H98.3191L94.2871 24.05ZM114.577 16.4V29H111.661V23.834H105.937V29H103.021V16.4H105.937V21.368H111.661V16.4H114.577ZM125.856 26.3H120.006L118.89 29H115.902L121.518 16.4H124.398L130.032 29H126.972L125.856 26.3ZM124.938 24.086L122.94 19.262L120.942 24.086H124.938ZM123.75 12.782H126.774L123.516 15.374H121.32L123.75 12.782ZM137.194 29.216C135.91 29.216 134.746 28.94 133.702 28.388C132.67 27.824 131.854 27.05 131.254 26.066C130.666 25.07 130.372 23.948 130.372 22.7C130.372 21.452 130.666 20.336 131.254 19.352C131.854 18.356 132.67 17.582 133.702 17.03C134.746 16.466 135.916 16.184 137.212 16.184C138.304 16.184 139.288 16.376 140.164 16.76C141.052 17.144 141.796 17.696 142.396 18.416L140.524 20.144C139.672 19.16 138.616 18.668 137.356 18.668C136.576 18.668 135.88 18.842 135.268 19.19C134.656 19.526 134.176 20 133.828 20.612C133.492 21.224 133.324 21.92 133.324 22.7C133.324 23.48 133.492 24.176 133.828 24.788C134.176 25.4 134.656 25.88 135.268 26.228C135.88 26.564 136.576 26.732 137.356 26.732C138.616 26.732 139.672 26.234 140.524 25.238L142.396 26.966C141.796 27.698 141.052 28.256 140.164 28.64C139.276 29.024 138.286 29.216 137.194 29.216ZM155.921 16.4V29H153.005V23.834H147.281V29H144.365V16.4H147.281V21.368H153.005V16.4H155.921ZM175.556 16.4V29H172.64V23.834H166.916V29H164V16.4H166.916V21.368H172.64V16.4H175.556ZM186.835 26.3H180.985L179.869 29H176.881L182.497 16.4H185.377L191.011 29H187.951L186.835 26.3ZM185.917 24.086L183.919 19.262L181.921 24.086H185.917ZM180.121 12.782H183.145L185.575 15.374H183.379L180.121 12.782ZM203.874 16.4V29H201.48L195.198 21.35V29H192.318V16.4H194.73L200.994 24.05V16.4H203.874ZM215.369 22.502H218.033V27.614C217.349 28.13 216.557 28.526 215.657 28.802C214.757 29.078 213.851 29.216 212.939 29.216C211.631 29.216 210.455 28.94 209.411 28.388C208.367 27.824 207.545 27.05 206.945 26.066C206.357 25.07 206.063 23.948 206.063 22.7C206.063 21.452 206.357 20.336 206.945 19.352C207.545 18.356 208.373 17.582 209.429 17.03C210.485 16.466 211.673 16.184 212.993 16.184C214.097 16.184 215.099 16.37 215.999 16.742C216.899 17.114 217.655 17.654 218.267 18.362L216.395 20.09C215.495 19.142 214.409 18.668 213.137 18.668C212.333 18.668 211.619 18.836 210.995 19.172C210.371 19.508 209.885 19.982 209.537 20.594C209.189 21.206 209.015 21.908 209.015 22.7C209.015 23.48 209.189 24.176 209.537 24.788C209.885 25.4 210.365 25.88 210.977 26.228C211.601 26.564 212.309 26.732 213.101 26.732C213.941 26.732 214.697 26.552 215.369 26.192V22.502Z" fill="white"/>
<path d="M240 18V0L258 18H240Z" fill="#2E1300"/>
<line y1="45.5" x2="580" y2="45.5" stroke="#252525"/>
</svg>
